<?xml version="1.0" encoding="UTF-8"?>
<!DOCTYPE svg PUBLIC "-//W3C//DTD SVG 1.1//EN" "http://www.w3.org/Graphics/SVG/1.1/DTD/svg11.dtd">
<svg version="1.1" xmlns="http://www.w3.org/2000/svg" xmlns:xlink="http://www.w3.org/1999/xlink" x="0" y="0" width="768" height="960" viewBox="0, 0, 768, 960">
  <defs>
    <clipPath id="Clip_1">
      <path d="M215.795,409.927 C215.795,446.795 245.788,476.789 282.657,476.789 C282.657,476.789 282.657,476.789 282.657,476.789 C319.525,476.789 349.519,446.795 349.519,409.927 C349.519,409.927 349.519,409.927 349.519,409.927 C349.519,373.059 319.525,343.065 282.657,343.065 C282.657,343.065 282.657,343.065 282.657,343.065 C245.788,343.065 215.795,373.059 215.795,409.927"/>
    </clipPath>
    <clipPath id="Clip_2">
      <path d="M215.795,409.927 C215.795,446.795 245.788,476.789 282.657,476.789 C282.657,476.789 282.657,476.789 282.657,476.789 C319.525,476.789 349.519,446.795 349.519,409.927 C349.519,409.927 349.519,409.927 349.519,409.927 C349.519,373.059 319.525,343.065 282.657,343.065 C282.657,343.065 282.657,343.065 282.657,343.065 C245.788,343.065 215.795,373.059 215.795,409.927"/>
    </clipPath>
  </defs>
  <g id="Guidelines" display="none">
    <path d="M60,636 L720,636" fill-opacity="0" stroke="#80FF80" stroke-width="1"/>
    <path d="M180,156 L180,840" fill-opacity="0" stroke="#80FF80" stroke-width="1"/>
    <path d="M60,396.069 L660,396.069" fill-opacity="0" stroke="#80FF80" stroke-width="1" id="Shape"/>
    <path d="M264,60 L264,840" fill-opacity="0" stroke="#80FF80" stroke-width="1"/>
    <path d="M264,336 L264,383.712" fill-opacity="0" stroke="#8080FF" stroke-width="1"/>
    <path d="M348,840 L348,216" fill-opacity="0" stroke="#80FF80" stroke-width="1"/>
    <path d="M228,372 L180,396.069" fill-opacity="0" stroke="#8080FF" stroke-width="1"/>
    <path d="M228,372 L264,383.712" fill-opacity="0" stroke="#8080FF" stroke-width="1"/>
    <path d="M264,383.712 L300,372" fill-opacity="0" stroke="#8080FF" stroke-width="1"/>
    <path d="M300,372 L348,396.069" fill-opacity="0" stroke="#8080FF" stroke-width="1"/>
    <path d="M264,336 L312,360" fill-opacity="0" stroke="#8080FF" stroke-width="1"/>
    <path d="M264,336 L216,360" fill-opacity="0" stroke="#8080FF" stroke-width="1"/>
    <path d="M312,360 L312,378.049" fill-opacity="0" stroke="#8080FF" stroke-width="1"/>
    <path d="M216,360 L216,378.049" fill-opacity="0" stroke="#8080FF" stroke-width="1"/>
    <path d="M180,396.068 L180,635.999" fill-opacity="0" stroke="#8080FF" stroke-width="1"/>
    <path d="M264,383.712 L264,648" fill-opacity="0" stroke="#8080FF" stroke-width="1"/>
    <path d="M348,396.07 L348,636.001" fill-opacity="0" stroke="#8080FF" stroke-width="1"/>
    <path d="M180,636 L228,660" fill-opacity="0" stroke="#8080FF" stroke-width="1"/>
    <path d="M228,660 L264,648" fill-opacity="0" stroke="#8080FF" stroke-width="1"/>
    <path d="M264,648 L300,660" fill-opacity="0" stroke="#8080FF" stroke-width="1"/>
    <path d="M300,660 L348,636" fill-opacity="0" stroke="#8080FF" stroke-width="1"/>
    <path d="M228,372 L228,660" fill-opacity="0" stroke="#8080FF" stroke-width="1"/>
    <path d="M300,372 L300,660" fill-opacity="0" stroke="#8080FF" stroke-width="1"/>
    <path d="M180,379.574 L180,648" fill-opacity="0" stroke="#FF8080" stroke-width="1"/>
    <path d="M228,359.999 L228,671.999" fill-opacity="0" stroke="#FF8080" stroke-width="1"/>
    <path d="M184,379.574 L184,648" fill-opacity="0" stroke="#FF8080" stroke-width="1"/>
    <path d="M224,360 L224,672" fill-opacity="0" stroke="#FF8080" stroke-width="1"/>
    <path d="M196,372 L196,656" fill-opacity="0" stroke="#FF8080" stroke-width="1"/>
    <path d="M198,372 L198,656" fill-opacity="0" stroke="#FF8080" stroke-width="1"/>
    <path d="M210,366 L210,664" fill-opacity="0" stroke="#FF8080" stroke-width="1"/>
    <path d="M212,366 L212,664" fill-opacity="0" stroke="#FF8080" stroke-width="1"/>
    <path d="M232,360 L232,672" fill-opacity="0" stroke="#FF8080" stroke-width="1"/>
    <path d="M180,394 L228,370" fill-opacity="0" stroke="#FF8080" stroke-width="1"/>
    <path d="M228,370 L264,382" fill-opacity="0" stroke="#FF8080" stroke-width="1"/>
    <path d="M264,382 L300,370" fill-opacity="0" stroke="#FF8080" stroke-width="1"/>
    <path d="M300,370 L348,394" fill-opacity="0" stroke="#FF8080" stroke-width="1"/>
    <path d="M264,372 L264,660" fill-opacity="0" stroke="#FF8080" stroke-width="1"/>
    <path d="M260,372 L260,660" fill-opacity="0" stroke="#FF8080" stroke-width="1"/>
    <path d="M252,370 L252,664" fill-opacity="0" stroke="#FF8080" stroke-width="1"/>
    <path d="M250,370 L250,664" fill-opacity="0" stroke="#FF8080" stroke-width="1"/>
    <path d="M242,366 L242,666" fill-opacity="0" stroke="#FF8080" stroke-width="1"/>
    <path d="M240,366 L240,666" fill-opacity="0" stroke="#FF8080" stroke-width="1"/>
    <path d="M258,396.068 L258,320" fill-opacity="0" stroke="#FF8080" stroke-width="1"/>
    <path d="M264,320 L264,388" fill-opacity="0" stroke="#FF8080" stroke-width="1"/>
    <path d="M216,388 L216,340" fill-opacity="0" stroke="#FF8080" stroke-width="1"/>
    <path d="M220,388 L220,340" fill-opacity="0" stroke="#FF8080" stroke-width="1"/>
    <path d="M208,362 L272,330" fill-opacity="0" stroke="#FF8080" stroke-width="1"/>
  </g>
  <g id="Wapuu_-_background_">
    <path d="M280.319,473.984 C243.451,473.984 213.457,443.99 213.457,407.122 C213.457,370.254 243.451,340.26 280.319,340.26 C317.187,340.26 347.181,370.254 347.181,407.122 C347.181,443.99 317.187,473.984 280.319,473.984" fill="#FFD100"/>
  </g>
  <g id="Martin_Tower">
    <g id="Facet_5">
      <path d="M264,383.712 L264,336 L216,360 L216,377.785 L228,372 L264,383.712 z" fill="#4E586A"/>
      <path d="M264,383.712 L264,336 L216,360 L216,377.785 L228,372 L264,383.712 z" fill-opacity="0" stroke="#4E586A" stroke-width="1" stroke-linejoin="round"/>
    </g>
    <g id="Facet_6">
      <path d="M312,360 L312,378.049 L300,372 L264,383.712 L264,336 L312,360 z" fill="#38404D"/>
      <path d="M312,360 L312,378.049 L300,372 L264,383.712 L264,336 L312,360 z" fill-opacity="0" stroke="#38404D" stroke-width="1" stroke-linejoin="round"/>
    </g>
    <g id="Col_5-1">
      <path d="M220,356 L220,376.011 L216,378.017 L216,358 L220,356 z" fill="#FFFFFF"/>
      <path d="M220,356 L220,376.011 L216,378.017 L216,358 L220,356 z" fill-opacity="0" stroke="#F3F4F6" stroke-width="1" stroke-linejoin="round"/>
    </g>
    <g id="Col_5-2">
      <path d="M264,334 L264,383.52 L258,381.6 L258,337 L264,334 z" fill="#FFFFFF"/>
      <path d="M264,334 L264,383.52 L258,381.6 L258,337 L264,334 z" fill-opacity="0" stroke="#F3F4F6" stroke-width="1" stroke-linejoin="round"/>
    </g>
    <g id="Col_6-1">
      <path d="M264,334 L264,383.52 L270,381.6 L270,337 L264,334 z" fill="#FFFFFF"/>
      <path d="M264,334 L264,383.52 L270,381.6 L270,337 L264,334 z" fill-opacity="0" stroke="#F3F4F6" stroke-width="1" stroke-linejoin="round"/>
    </g>
    <g id="Col_6-2">
      <path d="M308,356 L308,376.011 L312,378.017 L312,358 L308,356 z" fill="#FFFFFF"/>
      <path d="M308,356 L308,376.011 L312,378.017 L312,358 L308,356 z" fill-opacity="0" stroke="#F3F4F6" stroke-width="1" stroke-linejoin="round"/>
    </g>
    <g id="Facet_1">
      <path d="M180,396.069 L180,636 L228,660 L228,372 L180,396.069 z" fill="#4E586A"/>
      <path d="M180,396.069 L180,636 L228,660 L228,372 L180,396.069 z" fill-opacity="0" stroke="#4E586A" stroke-width="1" stroke-linejoin="round"/>
    </g>
    <g id="Facet_2">
      <path d="M264,648 L264,383.712 L228,372 L228,660 L264,648 z" fill="#38404D"/>
      <path d="M264,648 L264,383.712 L228,372 L228,660 L264,648 z" fill-opacity="0" stroke="#38404D" stroke-width="1" stroke-linejoin="round"/>
    </g>
    <g id="Facet_3">
      <path d="M264,648 L264,383.712 L300,372 L300,660 L264,648 z" fill="#4E586A"/>
      <path d="M264,648 L264,383.712 L300,372 L300,660 L264,648 z" fill-opacity="0" stroke="#4E586A" stroke-width="1" stroke-linejoin="round"/>
    </g>
    <g id="Facet_4">
      <path d="M348,396.069 L300,372 L300,660 L348,636 L348,396.069 z" fill="#38404D"/>
      <path d="M348,396.069 L300,372 L300,660 L348,636 L348,396.069 z" fill-opacity="0" stroke="#38404D" stroke-width="1" stroke-linejoin="round"/>
    </g>
    <g id="Col_1-1">
      <path d="M184,391.999 L184,637.999 L180,635.999 L180,393.999 L184,391.999 z" fill="#FFFFFF"/>
      <path d="M184,391.999 L184,637.999 L180,635.999 L180,393.999 L184,391.999 z" fill-opacity="0" stroke="#D1D4DD" stroke-width="1" stroke-linejoin="round"/>
    </g>
    <g id="Col_1-2">
      <path d="M198,384.999 L198,644.999 L196,643.999 L196,385.999 L198,384.999 z" fill="#FFFFFF"/>
      <path d="M198,384.999 L198,644.999 L196,643.999 L196,385.999 L198,384.999 z" fill-opacity="0" stroke="#D1D4DD" stroke-width="1" stroke-linejoin="round"/>
    </g>
    <g id="Col_1-3">
      <path d="M212,377.999 L212,651.999 L210,650.999 L210,378.999 L212,377.999 z" fill="#FFFFFF"/>
      <path d="M212,377.999 L212,651.999 L210,650.999 L210,378.999 L212,377.999 z" fill-opacity="0" stroke="#D1D4DD" stroke-width="1" stroke-linejoin="round"/>
    </g>
    <g id="Col_1-4">
      <path d="M228,660 L224,658 L224,372 L228,370 L228,660 z" fill="#FFFFFF"/>
      <path d="M228,660 L224,658 L224,372 L228,370 L228,660 z" fill-opacity="0" stroke="#D1D4DD" stroke-width="1" stroke-linejoin="round"/>
    </g>
    <g id="Col_2-1">
      <path d="M228,370 L232,371.333 L232,658.667 L228,660 L228,370 z" fill="#FFFFFF"/>
      <path d="M228,370 L232,371.333 L232,658.667 L228,660 L228,370 z" fill-opacity="0" stroke="#D1D4DD" stroke-width="1" stroke-linejoin="round"/>
    </g>
    <g id="Col_2-2">
      <path d="M240,374 L242,374.667 L242,655.333 L240,656 L240,374 z" fill="#FFFFFF"/>
      <path d="M240,374 L242,374.667 L242,655.333 L240,656 L240,374 z" fill-opacity="0" stroke="#D1D4DD" stroke-width="1" stroke-linejoin="round"/>
    </g>
    <g id="Col_2-3">
      <path d="M250,377.334 L252,378.001 L252,652.001 L250,652.667 L250,377.334 z" fill="#FFFFFF"/>
      <path d="M250,377.334 L252,378.001 L252,652.001 L250,652.667 L250,377.334 z" fill-opacity="0" stroke="#D1D4DD" stroke-width="1" stroke-linejoin="round"/>
    </g>
    <g id="Col_2-4">
      <path d="M264,648 L260,649.333 L260,380.667 L264,382 L264,648 z" fill="#FFFFFF"/>
      <path d="M264,648 L260,649.333 L260,380.667 L264,382 L264,648 z" fill-opacity="0" stroke="#D1D4DD" stroke-width="1" stroke-linejoin="round"/>
    </g>
    <g id="Col_3-1">
      <path d="M264,648 L268,649.333 L268,380.667 L264,382 L264,648 z" fill="#FFFFFF"/>
      <path d="M264,648 L268,649.333 L268,380.667 L264,382 L264,648 z" fill-opacity="0" stroke="#D1D4DD" stroke-width="1" stroke-linejoin="round"/>
    </g>
    <g id="Col_3-2">
      <path d="M278,377.333 L276,377.999 L276,651.999 L278,652.666 L278,377.333 z" fill="#FFFFFF"/>
      <path d="M278,377.333 L276,377.999 L276,651.999 L278,652.666 L278,377.333 z" fill-opacity="0" stroke="#D1D4DD" stroke-width="1" stroke-linejoin="round"/>
    </g>
    <g id="Col_3-3">
      <path d="M288,374 L286,374.667 L286,655.333 L288,656 L288,374 z" fill="#FFFFFF"/>
      <path d="M288,374 L286,374.667 L286,655.333 L288,656 L288,374 z" fill-opacity="0" stroke="#D1D4DD" stroke-width="1" stroke-linejoin="round"/>
    </g>
    <g id="Col_3-4">
      <path d="M300,370 L296,371.333 L296,658.667 L300,660 L300,370 z" fill="#FFFFFF"/>
      <path d="M300,370 L296,371.333 L296,658.667 L300,660 L300,370 z" fill-opacity="0" stroke="#D1D4DD" stroke-width="1" stroke-linejoin="round"/>
    </g>
    <g id="Col_4-1">
      <path d="M300,660 L304,658 L304,372 L300,370 L300,660 z" fill="#FFFFFF"/>
      <path d="M300,660 L304,658 L304,372 L300,370 L300,660 z" fill-opacity="0" stroke="#D1D4DD" stroke-width="1" stroke-linejoin="round"/>
    </g>
    <g id="Col_4-2">
      <path d="M316,378.001 L316,652.001 L318,651.001 L318,379.001 L316,378.001 z" fill="#FFFFFF"/>
      <path d="M316,378.001 L316,652.001 L318,651.001 L318,379.001 L316,378.001 z" fill-opacity="0" stroke="#D1D4DD" stroke-width="1" stroke-linejoin="round"/>
    </g>
    <g id="Col_4-3">
      <path d="M330,385.001 L330,645.001 L332,644.001 L332,386.001 L330,385.001 z" fill="#FFFFFF"/>
      <path d="M330,385.001 L330,645.001 L332,644.001 L332,386.001 L330,385.001 z" fill-opacity="0" stroke="#D1D4DD" stroke-width="1" stroke-linejoin="round"/>
    </g>
    <g id="Col_4-4">
      <path d="M344,392.001 L344,638.001 L348,636.001 L348,394.001 L344,392.001 z" fill="#FFFFFF"/>
      <path d="M344,392.001 L344,638.001 L348,636.001 L348,394.001 L344,392.001 z" fill-opacity="0" stroke="#D1D4DD" stroke-width="1" stroke-linejoin="round"/>
    </g>
  </g>
  <g id="Outline">
    <path d="M211.682,380.155 L216,378.017 L216,358 L220,356 L220,358 L258,339 L258,337 L264,334 L270,337 L270,339 L308,358 L308,356 L312,358 L312,378.017 L316,380.023 L316,378 L318,379 L318,381.026 L330,387.043 L330,385 L332,386 L332,388.046 L344,394.063 L344,392 L348,394 L348,636 L344,638 L332,644 L330,645 L318,651 L316,652 L300,660 L296,658.667 L264,648 L252,652 L250,652.667 L232,658.667 L228,660 L180,636 L180,394 L184,392 L184,394.063 L196,388.046 L196,386 L198,385 L198,387.043 L210,381.026 L210,379 L212,378 L212,380.023 L211.682,380.155 z" fill-opacity="0" stroke="#000000" stroke-width="2" stroke-linejoin="round"/>
    <path d="M228,370 L228,660" fill-opacity="0" stroke="#000000" stroke-width="2" stroke-linecap="round" stroke-linejoin="round"/>
    <path d="M264,382 L264,648" fill-opacity="0" stroke="#000000" stroke-width="2" stroke-linecap="round" stroke-linejoin="round"/>
    <path d="M300,370 L300,660" fill-opacity="0" stroke="#000000" stroke-width="2" stroke-linecap="round" stroke-linejoin="round"/>
    <path d="M264,336 L264,382" fill-opacity="0" stroke="#000000" stroke-width="2" stroke-linecap="round" stroke-linejoin="round"/>
    <path d="M304,373.6 L304,371.6 L300,369.6 L296,370.934 L296,372.855 L288,375.484 L288,373.6 L286,374.267 L286,376.166 L278,378.749 L278,376.933 L276,377.6 L276,379.337 L268,382 L268,380.267 L264,381.6 L260,380.267 L260,382 L252,379.337 L252,377.6 L250,376.933 L250,378.749 L242,376.166 L242,374.267 L240,373.6 L240,375.484 L232,372.855 L232,370.934 L228,369.6 L224,371.6 L224,373.6" fill-opacity="0" stroke="#000000" stroke-width="2" stroke-linejoin="round"/>
    <path d="M215.719,378.169 L224,373.6" fill-opacity="0" stroke="#000000" stroke-width="2" stroke-linecap="round" stroke-linejoin="round"/>
    <path d="M312,378.017 L304,373.6" fill-opacity="0" stroke="#000000" stroke-width="2" stroke-linecap="round" stroke-linejoin="round"/>
  </g>
  <g id="Wapuu_-_foreground">
    <path d="M-3.758,33.898 L708.742,33.898 L708.742,993.898 L-3.758,993.898 z" fill="#FFFFFF" display="none"/>
    <path d="M395.277,318.144 C393.961,318.01 390.756,317.945 385.484,317.945 C382.744,317.945 379.628,317.96 376.313,317.977 C372.549,317.997 368.53,318.017 364.517,318.017 C357.379,318.017 347.277,317.958 340.707,317.478 C340.699,317.472 340.691,317.467 340.683,317.461 C340.152,317.057 339.615,316.656 339.067,316.266 C338.33,315.734 337.582,315.21 336.808,314.707 C336.806,314.706 336.804,314.705 336.802,314.704 C336.8,314.702 336.798,314.701 336.797,314.7 C328.091,309.125 318.285,306.135 307.646,305.813 C307.646,305.813 307.646,305.813 307.646,305.813 C307.646,305.813 307.645,305.813 307.645,305.813 C306.771,305.787 305.886,305.773 305.014,305.773 C279.677,305.772 257.405,317.104 245.437,336.087 C245.18,336.494 244.938,336.899 244.706,337.302 C244.706,337.302 244.706,337.302 244.706,337.302 C244.706,337.302 239.292,341.067 239.292,341.067 C234.653,344.293 229.272,347.145 226.774,347.7 C226.377,347.788 226.039,347.948 225.767,348.175 C225.212,348.634 224.967,349.372 225.136,350.061 C225.215,350.378 225.375,350.67 225.6,350.905 C225.869,351.204 226.131,351.43 226.446,351.644 C228.867,353.277 233.764,353.323 240.155,351.616 C240.155,351.616 241.858,351.161 241.858,351.161 C241.858,351.161 241.858,351.161 241.858,351.161 C241.882,351.247 241.901,351.335 241.926,351.42 C242.415,353.029 243.207,354.333 244.099,355.353 C242.923,356.186 241.772,357.05 240.654,357.955 C240.457,357.839 240.253,357.739 240.042,357.654 C239.631,357.491 239.155,357.41 238.622,357.41 C235.741,357.41 231.64,359.733 229.082,362.815 C227.986,364.137 226.231,366.785 226.775,369.679 C226.942,370.569 227.232,371.348 227.616,372.024 C227.194,372.634 226.789,373.255 226.387,373.879 C226.234,374.118 226.078,374.355 225.927,374.597 C225.431,375.391 224.954,376.199 224.49,377.015 C224.372,377.222 224.249,377.426 224.133,377.634 C223.593,378.609 223.076,379.597 222.584,380.6 C222.559,380.651 222.531,380.701 222.506,380.752 C221.973,381.847 221.467,382.957 220.993,384.084 C220.986,384.102 220.98,384.121 220.972,384.139 C220.53,385.192 220.117,386.26 219.729,387.34 C219.618,387.648 219.52,387.961 219.413,388.27 C219.139,389.068 218.874,389.869 218.63,390.68 C218.509,391.079 218.4,391.482 218.287,391.884 C218.081,392.62 217.883,393.359 217.701,394.104 C217.594,394.546 217.492,394.989 217.394,395.434 C217.233,396.158 217.086,396.885 216.949,397.617 C216.863,398.077 216.778,398.536 216.701,398.999 C216.579,399.743 216.474,400.491 216.376,401.243 C216.317,401.694 216.253,402.144 216.203,402.599 C216.114,403.416 216.049,404.24 215.989,405.066 C215.961,405.458 215.922,405.847 215.9,406.241 C215.833,407.462 215.794,408.69 215.794,409.927 C215.794,411.058 215.823,412.182 215.879,413.298 C215.909,413.89 215.965,414.474 216.01,415.061 C216.05,415.576 216.077,416.094 216.128,416.605 C216.208,417.402 216.316,418.189 216.423,418.977 C216.463,419.266 216.49,419.559 216.534,419.847 C216.671,420.767 216.837,421.676 217.011,422.582 C217.039,422.73 217.061,422.88 217.09,423.028 C217.289,424.025 217.515,425.011 217.757,425.992 C217.77,426.043 217.78,426.095 217.794,426.146 C217.864,426.427 217.934,426.707 218.007,426.988 C215.337,425.059 212.459,424.031 209.648,424.031 C206.443,424.031 203.488,425.402 201.54,427.793 C199.295,430.55 198.532,434.363 199.394,438.526 C201.435,448.39 218.254,466.794 230.089,469.635 C231.076,469.873 231.988,469.993 232.801,469.993 C234.75,469.993 236.185,469.309 237.066,467.961 C238.61,465.598 238.126,461.716 237.381,459.072 C249.109,469.885 264.7,476.556 281.823,476.767 C282.178,478.81 282.838,480.568 284.032,481.802 C285.422,483.238 287.447,483.936 290.226,483.936 C290.888,483.936 291.571,483.891 292.311,483.799 C292.466,483.78 292.615,483.754 292.765,483.728 C292.765,483.728 292.908,483.704 292.908,483.704 C293.408,483.622 293.854,483.529 294.274,483.418 C294.47,483.368 294.665,483.315 294.855,483.256 C295.305,483.119 295.752,482.956 296.184,482.775 C296.184,482.775 296.271,482.741 296.271,482.741 C296.369,482.703 296.467,482.664 296.561,482.621 C297.115,482.369 297.638,482.09 298.117,481.793 C298.173,481.759 298.226,481.722 298.279,481.685 C298.673,481.435 299.084,481.14 299.479,480.825 C299.574,480.75 299.664,480.673 299.755,480.596 C299.755,480.596 299.81,480.548 299.81,480.548 C300.125,480.283 300.426,480.005 300.708,479.725 C300.708,479.725 300.776,479.658 300.776,479.658 C300.848,479.585 300.922,479.512 300.992,479.439 C301.309,479.105 301.609,478.762 301.883,478.42 C301.917,478.383 301.951,478.343 301.983,478.302 C302.277,477.929 302.556,477.54 302.837,477.116 C302.874,477.059 302.908,477.004 302.942,476.949 C302.942,476.949 302.942,476.95 302.942,476.95 C302.942,476.95 304.828,476.961 304.828,476.961 C304.828,476.961 307.429,476.968 307.429,476.968 C307.429,476.968 307.595,476.969 307.595,476.969 C313.697,476.969 321.927,476.015 331.142,472.457 C331.142,472.457 330.823,473.04 330.823,473.04 C319.61,493.557 295.271,509.33 274.212,509.729 C263.715,509.919 255.582,505.972 251.237,498.665 C245.477,488.979 236.467,485.461 230.54,486.983 C226.208,488.099 223.627,491.751 223.457,497.004 C223.311,501.533 226.905,507.137 233.318,512.38 C242.067,519.531 255.849,525.555 269.88,525.555 C273.352,525.555 276.841,525.186 280.271,524.373 C309.386,517.479 336.048,494.775 345.108,469.163 C345.108,469.163 346.683,464.199 346.683,464.199 C356.046,457.727 367.756,443.122 370.513,410.273 C372.216,389.983 369.841,367.049 364.462,351.847 C362.892,347.412 361.026,343.191 358.893,339.25 C358.182,337.937 357.442,336.655 356.673,335.406 C356.673,335.406 356.385,334.939 356.385,334.939 C362.542,337.86 367.516,338.686 371.13,338.686 C373.42,338.686 375.641,338.368 377.736,337.74 C387.413,334.836 393.395,328.761 395.767,324.044 C396.798,321.99 396.952,320.626 396.952,319.997 C396.952,319.041 396.228,318.24 395.277,318.144" fill="#000000" display="none"/>
    <path d="M395.277,318.144 C393.961,318.01 390.756,317.945 385.484,317.945 C382.744,317.945 379.628,317.96 376.313,317.977 C372.549,317.997 368.53,318.017 364.517,318.017 C357.379,318.017 347.277,317.958 340.707,317.478 C340.699,317.472 340.691,317.467 340.683,317.461 C340.152,317.057 339.615,316.656 339.067,316.266 C338.33,315.734 337.582,315.21 336.808,314.707 C336.806,314.706 336.804,314.705 336.802,314.704 C336.8,314.702 336.798,314.701 336.797,314.7 C328.091,309.125 318.285,306.135 307.646,305.813 C307.646,305.813 307.646,305.813 307.646,305.813 C307.646,305.813 307.645,305.813 307.645,305.813 C306.771,305.787 305.886,305.773 305.014,305.773 C279.677,305.772 257.405,317.104 245.437,336.087 C245.18,336.494 244.938,336.899 244.706,337.302 C244.706,337.302 244.706,337.302 244.706,337.302 C244.706,337.302 239.292,341.067 239.292,341.067 C234.653,344.293 229.272,347.145 226.774,347.7 C226.377,347.788 226.039,347.948 225.767,348.175 C225.212,348.634 224.967,349.372 225.136,350.061 C225.215,350.378 225.375,350.67 225.6,350.905 C225.869,351.204 226.131,351.43 226.446,351.644 C228.867,353.277 233.764,353.323 240.155,351.616 C240.155,351.616 241.858,351.161 241.858,351.161 C241.858,351.161 241.858,351.161 241.858,351.161 C241.882,351.247 241.901,351.335 241.926,351.42 C242.415,353.029 243.207,354.333 244.099,355.353 C242.923,356.186 241.772,357.05 240.654,357.955 C240.457,357.839 240.253,357.739 240.042,357.654 C239.631,357.491 239.155,357.41 238.622,357.41 C235.741,357.41 231.64,359.733 229.082,362.815 C227.986,364.137 226.231,366.785 226.775,369.679 C226.942,370.569 227.232,371.348 227.616,372.024 C227.194,372.634 226.789,373.255 226.387,373.879 C226.234,374.118 226.078,374.355 225.927,374.597 C225.431,375.391 224.954,376.199 224.49,377.015 C224.372,377.222 224.249,377.426 224.133,377.634 C223.593,378.609 223.076,379.597 222.584,380.6 C222.559,380.651 222.531,380.701 222.506,380.752 C221.973,381.847 221.467,382.957 220.993,384.084 C220.986,384.102 220.98,384.121 220.972,384.139 C220.53,385.192 220.117,386.26 219.729,387.34 C219.618,387.648 219.52,387.961 219.413,388.27 C219.139,389.068 218.874,389.869 218.63,390.68 C218.509,391.079 218.4,391.482 218.287,391.884 C218.081,392.62 217.883,393.359 217.701,394.104 C217.594,394.546 217.492,394.989 217.394,395.434 C217.233,396.158 217.086,396.885 216.949,397.617 C216.863,398.077 216.778,398.536 216.701,398.999 C216.579,399.743 216.474,400.491 216.376,401.243 C216.317,401.694 216.253,402.144 216.203,402.599 C216.114,403.416 216.049,404.24 215.989,405.066 C215.961,405.458 215.922,405.847 215.9,406.241 C215.833,407.462 215.794,408.69 215.794,409.927 C215.794,411.058 215.823,412.182 215.879,413.298 C215.909,413.89 215.965,414.474 216.01,415.061 C216.05,415.576 216.077,416.094 216.128,416.605 C216.208,417.402 216.316,418.189 216.423,418.977 C216.463,419.266 216.49,419.559 216.534,419.847 C216.671,420.767 216.837,421.676 217.011,422.582 C217.039,422.73 217.061,422.88 217.09,423.028 C217.289,424.025 217.515,425.011 217.757,425.992 C217.77,426.043 217.78,426.095 217.794,426.146 C217.864,426.427 217.934,426.707 218.007,426.988 C215.337,425.059 212.459,424.031 209.648,424.031 C206.443,424.031 203.488,425.402 201.54,427.793 C199.295,430.55 198.532,434.363 199.394,438.526 C201.435,448.39 218.254,466.794 230.089,469.635 C231.076,469.873 231.988,469.993 232.801,469.993 C234.75,469.993 236.185,469.309 237.066,467.961 C238.61,465.598 238.126,461.716 237.381,459.072 C249.109,469.885 264.7,476.556 281.823,476.767 C282.178,478.81 282.838,480.568 284.032,481.802 C285.422,483.238 287.447,483.936 290.226,483.936 C290.888,483.936 291.571,483.891 292.311,483.799 C292.466,483.78 292.615,483.754 292.765,483.728 C292.765,483.728 292.908,483.704 292.908,483.704 C293.408,483.622 293.854,483.529 294.274,483.418 C294.47,483.368 294.665,483.315 294.855,483.256 C295.305,483.119 295.752,482.956 296.184,482.775 C296.184,482.775 296.271,482.741 296.271,482.741 C296.369,482.703 296.467,482.664 296.561,482.621 C297.115,482.369 297.638,482.09 298.117,481.793 C298.173,481.759 298.226,481.722 298.279,481.685 C298.673,481.435 299.084,481.14 299.479,480.825 C299.574,480.75 299.664,480.673 299.755,480.596 C299.755,480.596 299.81,480.548 299.81,480.548 C300.125,480.283 300.426,480.005 300.708,479.725 C300.708,479.725 300.776,479.658 300.776,479.658 C300.848,479.585 300.922,479.512 300.992,479.439 C301.309,479.105 301.609,478.762 301.883,478.42 C301.917,478.383 301.951,478.343 301.983,478.302 C302.277,477.929 302.556,477.54 302.837,477.116 C302.874,477.059 302.908,477.004 302.942,476.949 C302.942,476.949 302.942,476.95 302.942,476.95 C302.942,476.95 304.828,476.961 304.828,476.961 C304.828,476.961 307.429,476.968 307.429,476.968 C307.429,476.968 307.595,476.969 307.595,476.969 C313.697,476.969 321.927,476.015 331.142,472.457 C331.142,472.457 330.823,473.04 330.823,473.04 C319.61,493.557 295.271,509.33 274.212,509.729 C263.715,509.919 255.582,505.972 251.237,498.665 C245.477,488.979 236.467,485.461 230.54,486.983 C226.208,488.099 223.627,491.751 223.457,497.004 C223.311,501.533 226.905,507.137 233.318,512.38 C242.067,519.531 255.849,525.555 269.88,525.555 C273.352,525.555 276.841,525.186 280.271,524.373 C309.386,517.479 336.048,494.775 345.108,469.163 C345.108,469.163 346.683,464.199 346.683,464.199 C356.046,457.727 367.756,443.122 370.513,410.273 C372.216,389.983 369.841,367.049 364.462,351.847 C362.892,347.412 361.026,343.191 358.893,339.25 C358.182,337.937 357.442,336.655 356.673,335.406 C356.673,335.406 356.385,334.939 356.385,334.939 C362.542,337.86 367.516,338.686 371.13,338.686 C373.42,338.686 375.641,338.368 377.736,337.74 C387.413,334.836 393.395,328.761 395.767,324.044 C396.798,321.99 396.952,320.626 396.952,319.997 C396.952,319.041 396.228,318.24 395.277,318.144 z" fill-opacity="0" stroke="#000000" stroke-width="11.25" stroke-linecap="round" stroke-linejoin="round" display="none"/>
    <path d="M282.656,476.789 C245.788,476.789 215.794,446.795 215.794,409.927 C215.794,373.059 245.788,343.065 282.656,343.065 C319.524,343.065 349.518,373.059 349.518,409.927 C349.518,446.795 319.524,476.789 282.656,476.789" fill="#005683" display="none"/>
    <g clip-path="url(#Clip_1)" display="none">
      <path d="M261.473,353.531 C254.018,353.531 246.944,355.147 240.562,358.028 C225.464,370.298 215.794,389.001 215.794,409.927 C215.794,418.865 217.571,427.392 220.767,435.193 C230.064,447.544 244.835,455.531 261.473,455.531 C289.608,455.531 312.416,432.697 312.416,404.531 C312.416,376.364 289.608,353.531 261.473,353.531" fill="#00709C"/>
    </g>
    <g clip-path="url(#Clip_2)" display="none">
      <path d="M258.535,360.547 C225.734,363.254 204.435,412.68 233.445,438.547 C262.846,464.76 299.17,430.89 297.915,399.463 C296.942,375.098 276.767,359.671 258.535,360.547 M228.41,383.253 C238.39,367.891 257.478,355.395 278.429,370.739 C278.288,370.733 264.998,371.342 274.658,385.631 C279.877,393.353 280.21,399.548 276.08,412.146 C274.589,418.357 274.14,420.232 272.808,426.627 C266.434,411.394 261.232,398.422 257.124,381.837 C260.735,381.307 264.827,380.707 262.725,378.382 C262.461,378.09 243.433,379.978 243.252,380.008 C241.791,380.257 241.535,381.977 241.533,381.994 C241.381,383.351 241.627,383.337 245.749,383.089 C246.835,388.944 247.331,391.617 250.018,400.164 C248.078,408.231 246.07,416.571 245.795,429.488 C237.125,412.232 233.655,400.247 232.993,385.263 C234.224,384.515 235.868,384.809 236.955,383.695 C237.697,382.936 238.057,381.221 237.133,381.022 C233.854,380.315 231.351,382.638 228.41,383.253 M273.979,437.06 C277.486,421.944 283.317,407.493 286.747,392.355 C287.41,389.429 287.983,384.875 286.952,379.797 C297.17,395.76 295.996,420.555 273.979,437.06 M244.05,441.54 C221.94,431.491 217.881,407.672 225.3,389.335 C225.582,407.481 230.664,421.63 244.05,441.54 M257.01,443.672 C254.185,443.855 251.886,443.692 249.077,443.109 C248.23,434.666 247.683,424.117 251.938,405.729 C259.666,425.745 268.178,440.421 268.238,440.502 C266.791,441.192 262.389,443.293 257.01,443.672" fill="#FFFFFF"/>
    </g>
    <path d="M282.656,476.789 C245.788,476.789 215.794,446.795 215.794,409.927 C215.794,373.059 245.788,343.065 282.656,343.065 C319.524,343.065 349.518,373.059 349.518,409.927 C349.518,446.795 319.524,476.789 282.656,476.789 z" fill-opacity="0" stroke="#000000" stroke-width="3.725" stroke-miterlimit="10" display="none"/>
    <path d="M344.293,461.432 C338.96,465.104 333.744,467.745 328.806,469.653 C328.806,469.653 328.486,470.236 328.486,470.236 C317.273,490.752 292.934,506.525 271.876,506.924 C261.379,507.115 253.245,503.167 248.901,495.861 C243.141,486.174 234.13,482.657 228.204,484.178 C223.872,485.294 221.29,488.947 221.121,494.2 C220.975,498.728 224.569,504.332 230.981,509.576 C239.73,516.726 253.512,522.75 267.543,522.75 C271.015,522.75 274.505,522.381 277.935,521.569 C307.05,514.674 333.712,491.97 342.772,466.358 C342.772,466.358 344.347,461.394 344.347,461.394 C344.329,461.406 344.311,461.42 344.293,461.432" fill="#FF8800"/>
    <path d="M344.293,461.432 C338.96,465.104 333.744,467.745 328.806,469.653 C328.806,469.653 328.486,470.236 328.486,470.236 C317.273,490.752 292.934,506.525 271.876,506.924 C261.379,507.115 253.245,503.167 248.901,495.861 C243.141,486.174 234.13,482.657 228.204,484.178 C223.872,485.294 221.29,488.947 221.121,494.2 C220.975,498.728 224.569,504.332 230.981,509.576 C239.73,516.726 253.512,522.75 267.543,522.75 C271.015,522.75 274.505,522.381 277.935,521.569 C307.05,514.674 333.712,491.97 342.772,466.358 C342.772,466.358 344.347,461.394 344.347,461.394 C344.329,461.406 344.311,461.42 344.293,461.432 z" fill-opacity="0" stroke="#000000" stroke-width="3.725" stroke-linecap="round" stroke-linejoin="round"/>
    <path d="M242.369,334.496 C242.369,334.496 236.955,338.262 236.955,338.262 C232.316,341.488 226.934,344.34 224.437,344.895 C224.04,344.983 223.702,345.142 223.43,345.37 C222.874,345.829 222.63,346.566 222.799,347.256 C222.877,347.573 223.037,347.865 223.263,348.1 C223.532,348.399 223.794,348.625 224.109,348.838 C226.53,350.472 231.427,350.517 237.818,348.81 C237.818,348.81 239.521,348.356 239.521,348.356 C238.421,344.403 239.401,339.641 242.369,334.496" fill="#FF8800"/>
    <path d="M242.369,334.496 C242.369,334.496 236.955,338.262 236.955,338.262 C232.316,341.488 226.934,344.34 224.437,344.895 C224.04,344.983 223.702,345.142 223.43,345.37 C222.874,345.829 222.63,346.566 222.799,347.256 C222.877,347.573 223.037,347.865 223.263,348.1 C223.532,348.399 223.794,348.625 224.109,348.838 C226.53,350.472 231.427,350.517 237.818,348.81 C237.818,348.81 239.521,348.356 239.521,348.356 C238.421,344.403 239.401,339.641 242.369,334.496 z" fill-opacity="0" stroke="#000000" stroke-width="3.725" stroke-linecap="round" stroke-linejoin="round"/>
    <path d="M305.435,345.173 C311.297,345.232 316.98,346.274 321.897,348.214 C316.835,346.217 310.965,345.162 304.919,345.162 C293.619,345.162 282.757,348.783 275.865,354.849 C270.524,359.549 270.243,363.167 270.947,365.375 C271.959,368.556 275.68,370.935 280.424,371.433 C280.852,371.478 281.316,371.5 281.805,371.5 C284.935,371.5 288.993,370.599 293.289,369.646 C298.533,368.482 304.477,367.162 310.007,367.162 C312.075,367.162 313.929,367.339 315.677,367.701 C327.24,370.093 335.088,377.19 346.968,387.934 C346.968,387.934 348.444,389.267 348.444,389.267 C348.444,389.267 346.969,387.934 346.969,387.934 C345.689,386.776 344.463,385.67 343.267,384.598 C345.794,391.64 347.181,399.221 347.181,407.122 C347.181,413.651 346.223,419.957 344.471,425.926 C346.666,426.997 348.469,428.347 349.683,429.918 C346.552,425.868 339.538,423.251 331.811,423.251 C330.697,423.251 329.575,423.306 328.477,423.418 C322.215,424.052 310.741,427.048 304.232,439.979 C304.232,439.979 303.1,442.227 303.1,442.227 C303.241,442.627 303.365,443.009 303.463,443.362 C303.68,444.106 303.88,444.847 304.077,445.627 C304.077,445.627 304.114,445.777 304.114,445.777 C304.114,445.777 304.136,445.871 304.136,445.871 C304.321,446.617 304.475,447.293 304.609,447.934 C306.228,455.719 305.372,461.022 303.465,467.058 C303.458,467.08 303.454,467.103 303.446,467.144 C303.44,467.176 303.303,467.927 302.963,469.034 C302.892,469.264 302.812,469.511 302.718,469.78 C302.718,469.78 302.699,469.834 302.699,469.834 C302.577,470.181 302.424,470.575 302.232,471.037 C302.155,471.223 302.078,471.408 301.991,471.599 C301.941,471.709 301.886,471.821 301.832,471.933 C301.832,471.933 301.781,472.04 301.781,472.04 C301.668,472.273 301.55,472.508 301.424,472.745 C301.351,472.882 301.277,473.019 301.199,473.159 C301.036,473.449 300.86,473.741 300.675,474.032 C300.675,474.032 300.627,474.109 300.627,474.109 C300.621,474.121 300.613,474.132 300.605,474.144 C300.605,474.144 300.605,474.145 300.605,474.145 C300.605,474.145 302.491,474.157 302.491,474.157 C302.491,474.157 305.092,474.164 305.092,474.164 C305.092,474.164 305.258,474.165 305.258,474.165 C314.629,474.165 329.008,471.956 344.292,461.432 C353.664,454.98 365.414,440.381 368.176,407.469 C369.879,387.178 367.504,364.245 362.124,349.043 C360.555,344.607 358.689,340.386 356.556,336.446 C355.845,335.132 355.105,333.85 354.335,332.602 C354.335,332.602 354.048,332.134 354.048,332.134 C354.048,332.134 354.042,332.15 354.042,332.15 C349.585,325.006 344.522,319.359 338.369,314.674 C338.369,314.674 338.37,314.673 338.37,314.673 C338.362,314.668 338.354,314.662 338.346,314.656 C337.815,314.252 337.278,313.852 336.73,313.462 C335.993,312.929 335.245,312.406 334.471,311.902 C334.469,311.901 334.467,311.9 334.465,311.899 C334.463,311.898 334.461,311.896 334.459,311.895 C325.754,306.321 315.948,303.331 305.309,303.008 C305.309,303.008 305.309,303.009 305.309,303.009 C305.309,303.009 305.308,303.009 305.308,303.009 C304.434,302.982 303.549,302.969 302.677,302.969 C277.34,302.968 255.068,314.3 243.1,333.282 C239.493,339.004 238.279,344.306 239.589,348.615 C240.606,351.964 242.926,354.028 244.757,354.843 C245.203,355.041 245.736,355.137 246.386,355.137 C250.895,355.137 264.382,350.034 268.808,341.988 C273.193,344.682 278.021,345.992 283.573,345.992 C289.893,345.992 296.16,344.266 301.99,342.401 C301.223,342.646 300.448,342.888 299.666,343.125" fill="#FFD200"/>
    <path d="M305.435,345.173 C311.297,345.232 316.98,346.274 321.897,348.214 C316.835,346.217 310.965,345.162 304.919,345.162 C293.619,345.162 282.757,348.783 275.865,354.849 C270.524,359.549 270.243,363.167 270.947,365.375 C271.959,368.556 275.68,370.935 280.424,371.433 C280.852,371.478 281.316,371.5 281.805,371.5 C284.935,371.5 288.993,370.599 293.289,369.646 C298.533,368.482 304.477,367.162 310.007,367.162 C312.075,367.162 313.929,367.339 315.677,367.701 C327.24,370.093 335.088,377.19 346.968,387.934 C346.968,387.934 348.444,389.267 348.444,389.267 C348.444,389.267 346.969,387.934 346.969,387.934 C345.689,386.776 344.463,385.67 343.267,384.598 C345.794,391.64 347.181,399.221 347.181,407.122 C347.181,413.651 346.223,419.957 344.471,425.926 C346.666,426.997 348.469,428.347 349.683,429.918 C346.552,425.868 339.538,423.251 331.811,423.251 C330.697,423.251 329.575,423.306 328.477,423.418 C322.215,424.052 310.741,427.048 304.232,439.979 C304.232,439.979 303.1,442.227 303.1,442.227 C303.241,442.627 303.365,443.009 303.463,443.362 C303.68,444.106 303.88,444.847 304.077,445.627 C304.077,445.627 304.114,445.777 304.114,445.777 C304.114,445.777 304.136,445.871 304.136,445.871 C304.321,446.617 304.475,447.293 304.609,447.934 C306.228,455.719 305.372,461.022 303.465,467.058 C303.458,467.08 303.454,467.103 303.446,467.144 C303.44,467.176 303.303,467.927 302.963,469.034 C302.892,469.264 302.812,469.511 302.718,469.78 C302.718,469.78 302.699,469.834 302.699,469.834 C302.577,470.181 302.424,470.575 302.232,471.037 C302.155,471.223 302.078,471.408 301.991,471.599 C301.941,471.709 301.886,471.821 301.832,471.933 C301.832,471.933 301.781,472.04 301.781,472.04 C301.668,472.273 301.55,472.508 301.424,472.745 C301.351,472.882 301.277,473.019 301.199,473.159 C301.036,473.449 300.86,473.741 300.675,474.032 C300.675,474.032 300.627,474.109 300.627,474.109 C300.621,474.121 300.613,474.132 300.605,474.144 C300.605,474.144 300.605,474.145 300.605,474.145 C300.605,474.145 302.491,474.157 302.491,474.157 C302.491,474.157 305.092,474.164 305.092,474.164 C305.092,474.164 305.258,474.165 305.258,474.165 C314.629,474.165 329.008,471.956 344.292,461.432 C353.664,454.98 365.414,440.381 368.176,407.469 C369.879,387.178 367.504,364.245 362.124,349.043 C360.555,344.607 358.689,340.386 356.556,336.446 C355.845,335.132 355.105,333.85 354.335,332.602 C354.335,332.602 354.048,332.134 354.048,332.134 C354.048,332.134 354.042,332.15 354.042,332.15 C349.585,325.006 344.522,319.359 338.369,314.674 C338.369,314.674 338.37,314.673 338.37,314.673 C338.362,314.668 338.354,314.662 338.346,314.656 C337.815,314.252 337.278,313.852 336.73,313.462 C335.993,312.929 335.245,312.406 334.471,311.902 C334.469,311.901 334.467,311.9 334.465,311.899 C334.463,311.898 334.461,311.896 334.459,311.895 C325.754,306.321 315.948,303.331 305.309,303.008 C305.309,303.008 305.309,303.009 305.309,303.009 C305.309,303.009 305.308,303.009 305.308,303.009 C304.434,302.982 303.549,302.969 302.677,302.969 C277.34,302.968 255.068,314.3 243.1,333.282 C239.493,339.004 238.279,344.306 239.589,348.615 C240.606,351.964 242.926,354.028 244.757,354.843 C245.203,355.041 245.736,355.137 246.386,355.137 C250.895,355.137 264.382,350.034 268.808,341.988 C273.193,344.682 278.021,345.992 283.573,345.992 C289.893,345.992 296.16,344.266 301.99,342.401 C301.223,342.646 300.448,342.888 299.666,343.125" fill-opacity="0" stroke="#000000" stroke-width="3.725" stroke-linecap="round" stroke-linejoin="round"/>
    <path d="M336.618,314.577 C336.356,314.577 336.128,314.587 335.942,314.602 C335.299,314.656 334.728,315.039 334.435,315.616 C334.143,316.192 334.171,316.878 334.508,317.43 C335.222,318.599 336.712,320.182 338.49,321.664 C338.49,321.664 338.958,322.061 338.958,322.061 C352.352,333.482 362.576,335.881 368.793,335.881 C371.083,335.881 373.305,335.563 375.399,334.935 C385.076,332.032 391.058,325.956 393.431,321.239 C394.462,319.185 394.615,317.822 394.615,317.192 C394.615,316.236 393.891,315.435 392.94,315.339 C391.624,315.205 388.42,315.14 383.147,315.14 C380.407,315.14 377.291,315.156 373.976,315.173 C370.213,315.192 366.193,315.212 362.18,315.212 C354.782,315.212 344.191,315.15 337.658,314.62 C337.298,314.592 336.949,314.577 336.618,314.577" fill="#FF8800"/>
    <path d="M336.618,314.577 C336.356,314.577 336.128,314.587 335.942,314.602 C335.299,314.656 334.728,315.039 334.435,315.616 C334.143,316.192 334.171,316.878 334.508,317.43 C335.222,318.599 336.712,320.182 338.49,321.664 C338.49,321.664 338.958,322.061 338.958,322.061 C352.352,333.482 362.576,335.881 368.793,335.881 C371.083,335.881 373.305,335.563 375.399,334.935 C385.076,332.032 391.058,325.956 393.431,321.239 C394.462,319.185 394.615,317.822 394.615,317.192 C394.615,316.236 393.891,315.435 392.94,315.339 C391.624,315.205 388.42,315.14 383.147,315.14 C380.407,315.14 377.291,315.156 373.976,315.173 C370.213,315.192 366.193,315.212 362.18,315.212 C354.782,315.212 344.191,315.15 337.658,314.62 C337.298,314.592 336.949,314.577 336.618,314.577 z" fill-opacity="0" stroke="#000000" stroke-width="3.725" stroke-linecap="round" stroke-linejoin="round"/>
    <path d="M238.622,357.41 C235.741,357.41 231.64,359.734 229.082,362.816 C227.986,364.138 226.231,366.785 226.774,369.679 C227.394,372.985 229.587,374.882 232.789,374.882 C235.368,374.882 238.233,373.556 240.454,371.335 C242.995,368.794 244.124,365.395 243.477,362.242 C243.027,360.05 241.743,358.335 240.041,357.655 C239.631,357.492 239.155,357.41 238.622,357.41" fill="#FFD200" display="none"/>
    <path d="M238.622,357.41 C235.741,357.41 231.64,359.734 229.082,362.816 C227.986,364.138 226.231,366.785 226.774,369.679 C227.394,372.985 229.587,374.882 232.789,374.882 C235.368,374.882 238.233,373.556 240.454,371.335 C242.995,368.794 244.124,365.395 243.477,362.242 C243.027,360.05 241.743,358.335 240.041,357.655 C239.631,357.492 239.155,357.41 238.622,357.41 z" fill-opacity="0" stroke="#000000" stroke-width="3.725" stroke-linecap="round" stroke-linejoin="round" display="none"/>
    <path d="M265.493,331.206 C262.526,333.432 263.42,336.184 266.737,336.599 C270.055,337.013 270.314,337.233 273.374,334.939 C276.691,332.45 277.107,328.302 273.374,328.718 C269.641,329.133 267.153,329.962 265.493,331.206" fill="#000000"/>
    <path d="M256.783,332.866 C256.783,334.928 255.112,336.599 253.051,336.599 C250.99,336.599 249.318,334.928 249.318,332.866 C249.318,330.804 250.99,329.134 253.051,329.134 C255.112,329.134 256.783,330.804 256.783,332.866" fill="#000000"/>
    <path d="M299.917,322.497 C299.917,324.559 298.246,326.23 296.185,326.23 C294.123,326.23 292.452,324.559 292.452,322.497 C292.452,320.435 294.123,318.765 296.185,318.765 C298.246,318.765 299.917,320.435 299.917,322.497" fill="#000000"/>
    <path d="M284.329,422.134 C282.939,422.134 281.602,422.555 280.357,423.385 C272.957,428.319 275.201,437.686 277.37,446.745 C277.974,449.273 278.6,451.886 278.97,454.288 C279.438,457.333 279.322,460.837 279.209,464.226 C279.016,470.033 278.817,476.022 281.695,478.997 C283.085,480.433 285.111,481.131 287.889,481.131 C288.552,481.131 289.234,481.086 289.975,480.994 C290.129,480.975 290.279,480.949 290.428,480.923 C290.428,480.923 290.572,480.899 290.572,480.899 C291.071,480.817 291.517,480.724 291.937,480.613 C292.133,480.563 292.328,480.51 292.518,480.451 C292.968,480.314 293.415,480.152 293.848,479.97 C293.848,479.97 293.934,479.936 293.934,479.936 C294.032,479.898 294.13,479.859 294.224,479.816 C294.778,479.564 295.302,479.285 295.78,478.988 C295.836,478.954 295.89,478.917 295.942,478.88 C296.336,478.63 296.747,478.335 297.142,478.02 C297.237,477.946 297.327,477.868 297.418,477.791 C297.418,477.791 297.474,477.743 297.474,477.743 C297.788,477.478 298.09,477.2 298.371,476.92 C298.371,476.92 298.439,476.853 298.439,476.853 C298.512,476.78 298.585,476.707 298.655,476.634 C298.973,476.3 299.272,475.957 299.547,475.615 C299.58,475.578 299.614,475.538 299.646,475.497 C299.94,475.124 300.22,474.736 300.5,474.311 C300.545,474.242 300.587,474.175 300.628,474.109 C300.628,474.109 300.676,474.031 300.676,474.031 C300.86,473.74 301.036,473.448 301.199,473.158 C301.277,473.019 301.351,472.882 301.425,472.744 C301.551,472.508 301.669,472.273 301.781,472.039 C301.781,472.039 301.833,471.933 301.833,471.933 C301.887,471.821 301.941,471.708 301.991,471.599 C302.078,471.407 302.155,471.223 302.232,471.036 C302.425,470.574 302.577,470.181 302.699,469.833 C302.699,469.833 302.719,469.78 302.719,469.78 C302.812,469.511 302.892,469.264 302.964,469.033 C303.304,467.928 303.44,467.176 303.446,467.144 C303.454,467.103 303.459,467.079 303.466,467.058 C305.372,461.022 306.228,455.719 304.609,447.934 C304.475,447.292 304.321,446.616 304.137,445.87 C304.137,445.87 304.114,445.777 304.114,445.777 C304.114,445.777 304.077,445.626 304.077,445.626 C303.881,444.847 303.681,444.106 303.464,443.362 C301.667,436.894 292.566,422.134 284.329,422.134" fill="#FFD200" id="Shape"/>
    <path d="M284.329,422.134 C282.939,422.134 281.602,422.555 280.357,423.385 C272.957,428.319 275.201,437.686 277.37,446.745 C277.974,449.273 278.6,451.886 278.97,454.288 C279.438,457.333 279.322,460.837 279.209,464.226 C279.016,470.033 278.817,476.022 281.695,478.997 C283.085,480.433 285.111,481.131 287.889,481.131 C288.552,481.131 289.234,481.086 289.975,480.994 C290.129,480.975 290.279,480.949 290.428,480.923 C290.428,480.923 290.572,480.899 290.572,480.899 C291.071,480.817 291.517,480.724 291.937,480.613 C292.133,480.563 292.328,480.51 292.518,480.451 C292.968,480.314 293.415,480.152 293.848,479.97 C293.848,479.97 293.934,479.936 293.934,479.936 C294.032,479.898 294.13,479.859 294.224,479.816 C294.778,479.564 295.302,479.285 295.78,478.988 C295.836,478.954 295.89,478.917 295.942,478.88 C296.336,478.63 296.747,478.335 297.142,478.02 C297.237,477.946 297.327,477.868 297.418,477.791 C297.418,477.791 297.474,477.743 297.474,477.743 C297.788,477.478 298.09,477.2 298.371,476.92 C298.371,476.92 298.439,476.853 298.439,476.853 C298.512,476.78 298.585,476.707 298.655,476.634 C298.973,476.3 299.272,475.957 299.547,475.615 C299.58,475.578 299.614,475.538 299.646,475.497 C299.94,475.124 300.22,474.736 300.5,474.311 C300.545,474.242 300.587,474.175 300.628,474.109 C300.628,474.109 300.676,474.031 300.676,474.031 C300.86,473.74 301.036,473.448 301.199,473.158 C301.277,473.019 301.351,472.882 301.425,472.744 C301.551,472.508 301.669,472.273 301.781,472.039 C301.781,472.039 301.833,471.933 301.833,471.933 C301.887,471.821 301.941,471.708 301.991,471.599 C302.078,471.407 302.155,471.223 302.232,471.036 C302.425,470.574 302.577,470.181 302.699,469.833 C302.699,469.833 302.719,469.78 302.719,469.78 C302.812,469.511 302.892,469.264 302.964,469.033 C303.304,467.928 303.44,467.176 303.446,467.144 C303.454,467.103 303.459,467.079 303.466,467.058 C305.372,461.022 306.228,455.719 304.609,447.934 C304.475,447.292 304.321,446.616 304.137,445.87 C304.137,445.87 304.114,445.777 304.114,445.777 C304.114,445.777 304.077,445.626 304.077,445.626 C303.881,444.847 303.681,444.106 303.464,443.362 C301.667,436.894 292.566,422.134 284.329,422.134 z" fill-opacity="0" stroke="#000000" stroke-width="3.725" stroke-linecap="round" stroke-linejoin="round"/>
    <path d="M209.648,424.031 C212.625,424.031 215.678,425.171 218.48,427.325 C223.894,431.491 233.856,450.62 236.728,457.187 C237.693,459.394 239.047,464.932 237.066,467.962 C236.185,469.309 234.75,469.993 232.801,469.993 C231.989,469.993 231.076,469.873 230.089,469.635 C218.254,466.795 201.435,448.39 199.394,438.526 C198.533,434.363 199.295,430.551 201.541,427.794 C203.488,425.402 206.443,424.031 209.648,424.031" fill="#FFD200" display="none"/>
    <path d="M209.648,424.031 C212.625,424.031 215.678,425.171 218.48,427.325 C223.894,431.491 233.856,450.62 236.728,457.187 C237.693,459.394 239.047,464.932 237.066,467.962 C236.185,469.309 234.75,469.993 232.801,469.993 C231.989,469.993 231.076,469.873 230.089,469.635 C218.254,466.795 201.435,448.39 199.394,438.526 C198.533,434.363 199.295,430.551 201.541,427.794 C203.488,425.402 206.443,424.031 209.648,424.031 z" fill-opacity="0" stroke="#000000" stroke-width="3.725" stroke-linecap="round" stroke-linejoin="round" display="none"/>
  </g>
  <g id="Hard_Hat">
    <path d="M347.041,301.486 C312.133,309.607 275.538,308.439 249.943,305.939 C205.538,334.366 294.283,318.072 307.122,315.409 C329.237,310.822 329.518,313.935 348.095,311.426 C352.144,310.648 353.409,308.81 347.041,301.486" fill="#4E586A" id="Brim"/>
    <path d="M347.041,301.486 C312.133,309.607 275.538,308.439 249.943,305.939 C256.523,239.946 333.877,237.748 347.041,301.486" fill="#FFFFFF" id="Shell"/>
    <path d="M292.31,284.491 C298.744,270.685 313.562,262.483 327.336,266.218 C318.602,249.333 287.4,267.611 292.31,284.491" fill="#4E586A" id="Ridge_3"/>
    <path d="M280.053,280.606 C273.632,265.663 296.969,244.967 309.543,256.586 C297.061,257.255 283.686,268.364 280.129,280.492" fill="#4E586A" id="Ridge_2"/>
    <path d="M293.402,254.563 C275.679,252.952 265.999,264.187 267.052,281.18 C272.588,271.003 277.983,257.949 290.005,256.754 C291.063,256.649 292.663,255.272 293.402,254.519" fill="#4E586A" id="Ridge_1"/>
    <path d="M249.943,305.938 C205.538,334.366 294.872,318.676 307.711,316.013 C329.825,311.426 329.518,313.935 348.095,311.426 C352.144,310.648 353.409,308.81 347.041,301.486 C344.015,288.08 338.137,274.971 327.264,266.098 C325.089,262.449 321.806,259.827 317.412,259.647 C311.877,257.353 314.682,258.352 309,256.643 L309.543,256.586 C306.803,254.329 303.786,253.042 300.171,253.202 C297.538,253.568 294.94,253.964 292.621,255.38 L292.6,255.383 L292.845,255.197 L292.898,255.157 L292.898,255.201 L292.845,255.197 C284.833,254.622 275.7,256.103 271.3,263.777 C258.214,273.728 251.709,289.993 249.943,305.938" fill-opacity="0" stroke="#000000" stroke-width="3.72" stroke-linecap="round" stroke-linejoin="round" id="Outline_Inner"/>
    <path d="M302.451,249.767 C306.921,249.533 310.934,251.235 314.428,253.9 C315.34,254.174 316.256,254.438 317.16,254.736 C318.443,255.238 319.71,255.779 320.98,256.312 C326.097,256.706 330.178,259.921 332.934,264.059 C343.861,273.179 350.051,286.431 353.333,300.031 C357.35,304.061 359.473,309.475 356.029,314.582 C354.596,316.44 351.927,316.785 350.068,315.351 C349.025,314.54 348.674,313.663 348.512,312.406 L352.664,311.986 C354.826,309.184 352.522,304.672 349.509,302.298 C346.482,288.891 340.605,275.783 329.732,266.91 C327.557,263.261 324.274,260.639 319.88,260.459 C314.345,258.165 317.15,259.164 311.468,257.455 L312.011,257.398 C309.271,255.141 306.253,253.853 302.638,254.013 C300.006,254.38 297.408,254.776 295.089,256.192 L295.068,256.195 L295.313,256.009 L295.366,256.013 L295.366,255.969 L295.313,256.009 C287.301,255.434 278.168,256.915 273.768,264.589 C260.682,274.54 254.177,290.805 252.411,306.75 C242.863,313.457 229.772,323.539 251.245,322.248 L255.46,321.821 L255.487,321.993 C255.628,324.336 253.843,326.349 251.5,326.49 C245.634,326.843 241.649,326.451 239.04,325.072 C235.161,323.021 234.463,319.054 236.483,315.429 C239.386,310.764 244.039,307.5 248.438,304.363 C250.442,288.029 257.621,272.215 270.553,261.727 C275.565,253.506 285.519,251.256 294.515,251.714 C296.858,250.535 299.488,250.184 302.052,249.804 C302.184,249.786 302.317,249.773 302.451,249.767 z" fill="#000000" id="Outline_Outer" display="none"/>
    <path d="M278.86,283.138 C267.655,281.857 258.288,292.887 266.958,301.052 C275.745,309.328 289.508,303.064 290.463,295.169 C291.203,289.048 285.061,284.006 278.86,283.138 M267.682,286.993 C271.729,283.765 278.729,281.793 285.137,286.86 C285.09,286.85 280.571,286.209 283.209,290.341 C284.634,292.573 284.475,294.135 282.526,297.024 C281.75,298.48 281.516,298.92 280.785,300.432 C279.299,296.262 278.11,292.723 277.449,288.352 C278.693,288.435 280.102,288.529 279.494,287.826 C279.417,287.737 272.903,287.073 272.841,287.07 C272.336,287.045 272.174,287.457 272.173,287.461 C272.062,287.79 272.146,287.801 273.55,287.985 C273.66,289.507 273.71,290.202 274.243,292.489 C273.234,294.38 272.189,296.336 271.529,299.534 C269.356,294.723 268.709,291.534 269.143,287.766 C269.592,287.653 270.134,287.824 270.551,287.612 C270.835,287.467 271.032,287.062 270.728,286.957 C269.651,286.586 268.703,287.015 267.682,286.993 M280.723,303.098 C282.572,299.546 285.176,296.297 287,292.734 C287.352,292.046 287.746,290.947 287.62,289.622 C290.373,294.203 288.889,300.303 280.723,303.098 M270.411,302.429 C263.379,298.611 263.052,292.442 266.364,288.321 C265.663,292.853 266.76,296.677 270.411,302.429 M274.697,303.732 C273.735,303.609 272.965,303.432 272.041,303.119 C272.125,300.968 272.403,298.31 274.648,293.988 C276.382,299.429 278.615,303.589 278.632,303.612 C278.112,303.698 276.532,303.958 274.697,303.732" fill="#4E586A"/>
    <path d="M346.515,302.006 C311.608,310.127 275.012,308.958 249.417,306.458" fill-opacity="0" stroke="#000000" stroke-width="2" stroke-linecap="round" stroke-linejoin="round" id="Shape"/>
  </g>
  <g id="Plunger" display="none">
    <g id="Left_Shape">
      <path d="M138,618.492 L138,642.492 L154,650.492 L154,626.492 L138,618.492 z" fill="#D11644"/>
      <path d="M138,618.492 L138,642.492 L154,650.492 L154,626.492 L138,618.492 z" fill-opacity="0" stroke="#000000" stroke-width="2" stroke-linejoin="round"/>
    </g>
    <g id="Right_Side">
      <path d="M170,644.492 L154,650.492 L154,626.492 L170,620.492 L170,644.492 z" fill="#A31135"/>
      <path d="M170,644.492 L154,650.492 L154,626.492 L170,620.492 L170,644.492 z" fill-opacity="0" stroke="#000000" stroke-width="2" stroke-linejoin="round"/>
    </g>
    <g id="Top">
      <path d="M138,618.492 L152,612.492 L170,620.492 L154,626.492 L138,618.492 z" fill="#E7194C"/>
      <path d="M138,618.492 L152,612.492 L170,620.492 L154,626.492 L138,618.492 z" fill-opacity="0" stroke="#000000" stroke-width="2" stroke-linejoin="round"/>
    </g>
    <g id="Detonator_Bar">
      <path d="M145,602.672 L163,610.673" fill-opacity="0" stroke="#000000" stroke-width="3.72" stroke-linecap="round" stroke-linejoin="round"/>
      <path d="M153.615,619.165 L153.615,607.165" fill-opacity="0" stroke="#000000" stroke-width="3.72" stroke-linecap="round" stroke-linejoin="round"/>
    </g>
    <path d="M170,644 C182.686,642.234 184.52,655.495 198,646" fill-opacity="0" stroke="#000000" stroke-width="2" stroke-linecap="round" stroke-linejoin="round" id="Det_Cord"/>
  </g>
  <g id="Blasts" display="none">
    <g id="Left_Side">
      <g id="Red">
        <path d="M210.81,439.49 L219.064,435.452 L213.119,445.723 L218.324,451.564 L210.08,454.077 L219.888,464.778 L207.574,460.617 L204.947,468.773 L201.447,459.175 L196.457,466.145 L190.661,458.81 L183.922,466.82 L185.037,458.092 L174.526,463.505 L180.563,452.994 L174.357,451.042 L183.22,443.892 L176.92,434.411 L185.337,436.899 L187.402,430.362 L193.072,437.925 L198.836,431.805 L201.495,438.9 L208.66,430.019 L210.893,439.292" fill="#FF0000"/>
        <path d="M210.81,439.49 L219.064,435.452 L213.119,445.723 L218.324,451.564 L210.08,454.077 L219.888,464.778 L207.574,460.617 L204.947,468.773 L201.447,459.175 L196.457,466.145 L190.661,458.81 L183.922,466.82 L185.037,458.092 L174.526,463.505 L180.563,452.994 L174.357,451.042 L183.22,443.892 L176.92,434.411 L185.337,436.899 L187.402,430.362 L193.072,437.925 L198.836,431.805 L201.495,438.9 L208.66,430.019 L210.893,439.292" fill-opacity="0" stroke="#FF0000" stroke-width="0.1" stroke-linecap="round" stroke-linejoin="round"/>
      </g>
      <g id="Orange">
        <path d="M206.338,452.59 L211.865,449.42 L209.051,446.981 L212.393,441.665 L207.777,443.264 L206.244,439.271 L201.482,443.842 L197.551,437.859 L193.507,442.301 L189.055,438.134 L187.859,441.88 L184.237,440.117 L185.558,445.133 L180.26,449.65 L183.849,450.424 L181.3,456.729 L187.798,453.149 L187.078,458.243 L191.277,454.465 L196.269,460.388 L201.062,455.199 L205.536,459.708 L205.231,456.408 L209.863,457.971 L206.339,452.59" fill="#FF8700"/>
        <path d="M206.338,452.59 L211.865,449.42 L209.051,446.981 L212.393,441.665 L207.777,443.264 L206.244,439.271 L201.482,443.842 L197.551,437.859 L193.507,442.301 L189.055,438.134 L187.859,441.88 L184.237,440.117 L185.558,445.133 L180.26,449.65 L183.849,450.424 L181.3,456.729 L187.798,453.149 L187.078,458.243 L191.277,454.465 L196.269,460.388 L201.062,455.199 L205.536,459.708 L205.231,456.408 L209.863,457.971 L206.339,452.59" fill-opacity="0" stroke="#FF8700" stroke-width="0.1" stroke-linecap="round" stroke-linejoin="round"/>
      </g>
      <g id="Yellow">
        <path d="M201,447.835 L205.441,444.729 L205.861,447.421 L208.062,449.071 L202.938,451.299 L204.463,453.675 L199.435,452.507 L196.731,455.288 L192.645,451.902 L189.666,452.648 L189.903,449.709 L184.566,452.955 L186.619,448.418 L189.057,447.45 L187.212,443.996 L190.519,444.81 L190.564,443.011 L193.984,445.882 L196.751,442.827 L201,447.835" fill="#FFFF00"/>
        <path d="M201,447.835 L205.441,444.729 L205.861,447.421 L208.062,449.071 L202.938,451.299 L204.463,453.675 L199.435,452.507 L196.731,455.288 L192.645,451.902 L189.666,452.648 L189.903,449.709 L184.566,452.955 L186.619,448.418 L189.057,447.45 L187.212,443.996 L190.519,444.81 L190.564,443.011 L193.984,445.882 L196.751,442.827 L201,447.835" fill-opacity="0" stroke="#FFFF00" stroke-width="0.1" stroke-linecap="round" stroke-linejoin="round"/>
      </g>
    </g>
    <g id="Right_Side">
      <g id="Red">
        <path d="M346.354,577.526 L360.451,579.547 L349.484,569.795 L357.446,561.619 L343.535,561.313 L358.573,546.251 L338.667,554.712 L333.42,546.327 L328.693,558.214 L319.669,551.889 L310.895,561.929 L298.864,554.968 L301.673,564.461 L283.691,561.581 L294.837,571.576 L284.79,575.677 L300.237,581.018 L290.867,593.63 L304.512,588.249 L308.651,594.982 L317.192,584.723 L327.4,589.853 L331.014,581.044 L343.846,588.856 L346.514,577.724" fill="#FF0000"/>
        <path d="M346.354,577.526 L360.451,579.547 L349.484,569.795 L357.446,561.619 L343.535,561.313 L358.573,546.251 L338.667,554.712 L333.42,546.327 L328.693,558.214 L319.669,551.889 L310.895,561.929 L298.864,554.968 L301.673,564.461 L283.691,561.581 L294.837,571.576 L284.79,575.677 L300.237,581.018 L290.867,593.63 L304.512,588.249 L308.651,594.982 L317.192,584.723 L327.4,589.853 L331.014,581.044 L343.846,588.856 L346.514,577.724" fill-opacity="0" stroke="#FF0000" stroke-width="0.1" stroke-linecap="round" stroke-linejoin="round"/>
      </g>
      <g id="Orange">
        <path d="M337.511,564.135 L347.001,566.013 L342.617,569.624 L348.732,574.59 L340.921,574.203 L338.827,579.172 L330.446,575.48 L324.606,583.425 L317.427,579.659 L310.525,585.718 L308.132,581.863 L302.337,584.96 L303.967,578.903 L294.705,575.437 L300.555,573.465 L295.643,567.142 L306.786,569.185 L305.033,563.665 L312.395,566.636 L319.995,558.433 L328.496,562.812 L335.397,556.36 L335.257,560.172 L342.744,556.992 L337.511,564.135" fill="#FF8700"/>
        <path d="M337.511,564.135 L347.001,566.013 L342.617,569.624 L348.732,574.59 L340.921,574.203 L338.827,579.172 L330.446,575.48 L324.606,583.425 L317.427,579.659 L310.525,585.718 L308.132,581.863 L302.337,584.96 L303.967,578.903 L294.705,575.437 L300.555,573.465 L295.643,567.142 L306.786,569.185 L305.033,563.665 L312.395,566.636 L319.995,558.433 L328.496,562.812 L335.397,556.36 L335.257,560.172 L342.744,556.992 L337.511,564.135" fill-opacity="0" stroke="#FF8700" stroke-width="0.1" stroke-linecap="round" stroke-linejoin="round"/>
      </g>
      <g id="Yellow">
        <path d="M329.208,571.128 L336.895,573.268 L337.292,570.105 L340.75,567.572 L332.03,566.631 L334.29,563.486 L326.103,566.343 L321.323,564.038 L314.94,569.105 L309.931,569.177 L310.648,572.416 L301.463,570.393 L305.36,574.877 L309.498,575.221 L306.829,579.678 L312.207,577.748 L312.481,579.76 L317.821,575.478 L322.734,578.072 L329.208,571.128" fill="#FFFF00"/>
        <path d="M329.208,571.128 L336.895,573.268 L337.292,570.105 L340.75,567.572 L332.03,566.631 L334.29,563.486 L326.103,566.343 L321.323,564.038 L314.94,569.105 L309.931,569.177 L310.648,572.416 L301.463,570.393 L305.36,574.877 L309.498,575.221 L306.829,579.678 L312.207,577.748 L312.481,579.76 L317.821,575.478 L322.734,578.072 L329.208,571.128" fill-opacity="0" stroke="#FFFF00" stroke-width="0.1" stroke-linecap="round" stroke-linejoin="round"/>
      </g>
    </g>
  </g>
</svg>
